<svg id="Capa_1" enable-background="new 0 0 512 512" height="512" fill="#A5A6B1" viewBox="0 0 512 512" width="512" xmlns="http://www.w3.org/2000/svg"><g><path d="m137.881 180.315c5.857 5.858 15.356 5.859 21.214.001l127.279-127.28c5.857-5.857 5.858-15.354.001-21.212l-27.419-27.43c-5.858-5.859-15.357-5.858-21.214-.001l-127.28 127.28c-5.857 5.857-5.858 15.354-.001 21.212z"/><path d="m343.805 365.016 127.28-127.28c5.858-5.857 5.854-15.36-.001-21.214l-27.431-27.42c-5.857-5.856-15.354-5.856-21.212.001l-127.28 127.27c-5.857 5.858-5.855 15.36 0 21.213l27.431 27.43c5.858 5.859 15.357 5.858 21.213 0z"/><path d="m403.459 165.8c-15.97-4.84-40.36-14.84-59.65-34.13-19.18-19.18-29.22-43.67-34.1-59.69-1.688 1.937-130.057 130.264-131.63 131.63 21.729 6.6 43.555 17.998 59.66 34.13 16.102 16.075 27.397 37.647 34.11 59.67 1.686-1.938 130.02-130.209 131.61-131.61z"/><path d="m176.969 234.859-172.58 172.581c-5.85 5.86-5.85 15.36 0 21.22l42.43 42.43c5.86 5.85 15.36 5.85 21.22 0l172.55-172.56c-5.86-15.93-14.25-29.78-24.05-39.56-9.851-9.87-23.7-18.27-39.57-24.111z"/><path d="m466.999 422h-120c-24.813 0-45 20.187-45 45v30c0 8.284 6.716 15 15 15h180c8.284 0 15-6.716 15-15v-30c0-24.813-20.187-45-45-45z"/></g></svg>