<svg xmlns="http://www.w3.org/2000/svg" xmlns:xlink="http://www.w3.org/1999/xlink" version="1.1" fill="#3f51b5" preserveAspectRatio="xMidYMid meet" width="67.96551727539861" height="66.34482757486714" style=""><rect id="backgroundrect" width="100%" height="100%" x="0" y="0" fill="none" stroke="none" class="" style=""/><defs><path d="M357.98 338.34L357.98 338.34L357.27 338.34L357.98 338.34Z" id="g12IYqoCSO"/><path d="M285.45 326.01L321.48 275.65L325.16 278.28L289.13 328.64L285.45 326.01Z" id="afkbwavRo"/><path d="M320.86 333.44L308.29 295.09L312.59 293.68L325.16 332.03L320.86 333.44Z" id="cSFlW3wM9"/><path d="M316.22 316.37L337.56 287.8L341.19 290.51L319.84 319.07L316.22 316.37Z" id="c1sbA7eOGC"/><path d="M309.91 267.21L341.69 289.85L339.01 293.61L307.23 270.97L309.91 267.21Z" id="cKAoE5J8m"/><path d="M273.82 317.55L309.85 267.19L313.53 269.82L277.5 320.18L273.82 317.55Z" id="a1odNRGx6g"/></defs><g class="currentLayer" style=""><title>Layer 1</title><g id="svg_1" class=""><g id="svg_2"><g id="svg_3"><use xlink:href="#g12IYqoCSO" opacity="1" fill="#3f51b5" fill-opacity="1" id="svg_4" y="-267.19000244140625" x="-273.82000732421875"/></g><g id="svg_5"><use xlink:href="#afkbwavRo" opacity="1" fill="#3f51b5" fill-opacity="1" id="svg_6" y="-267.19000244140625" x="-273.82000732421875"/></g><g id="svg_7"><use xlink:href="#cSFlW3wM9" opacity="1" fill="#3f51b5" fill-opacity="1" id="svg_8" y="-267.19000244140625" x="-273.82000732421875"/></g><g id="svg_9"><use xlink:href="#c1sbA7eOGC" opacity="1" fill="#3f51b5" fill-opacity="1" id="svg_10" y="-267.19000244140625" x="-273.82000732421875"/></g><g id="svg_11"><use xlink:href="#cKAoE5J8m" opacity="1" fill="#3f51b5" fill-opacity="1" id="svg_12" y="-267.19000244140625" x="-273.82000732421875"/></g><g id="svg_13"><use xlink:href="#a1odNRGx6g" opacity="1" fill="#3f51b5" fill-opacity="1" id="svg_14" y="-267.19000244140625" x="-273.82000732421875"/></g></g></g></g></svg>