<?xml version="1.0" ?><svg height="64" viewBox="0 0 64 64" width="64" fill="white" xmlns="http://www.w3.org/2000/svg"><defs><style>.cls-1{fill:none;stroke:#FFF;stroke-linejoin:round;stroke-width:2px;}</style></defs><title/><g data-name="3-Mobile Shopping" id="_3-Mobile_Shopping"><path class="cls-1" d="M50,41V60c0,1.209-1.791,3-4,3H14a4,4,0,0,1-4-4V47"/><path class="cls-1" d="M50,11V5a4,4,0,0,0-4-4H14a4,4,0,0,0-4,4V27"/><line class="cls-1" x1="10" x2="50" y1="9" y2="9"/><line class="cls-1" x1="10" x2="50" y1="55" y2="55"/><line class="cls-1" x1="34" x2="36" y1="5" y2="5"/><line class="cls-1" x1="29" x2="31" y1="59" y2="59"/><line class="cls-1" x1="32" x2="24" y1="5" y2="5"/><rect class="cls-1" height="4" width="24" x="5" y="30"/><path class="cls-1" d="M7,34v9a1,1,0,0,0,1,1H26a1,1,0,0,0,1-1V34"/><line class="cls-1" x1="17" x2="17" y1="37" y2="41"/><line class="cls-1" x1="22" x2="22" y1="37" y2="41"/><line class="cls-1" x1="12" x2="12" y1="37" y2="41"/><rect class="cls-1" height="5" width="4" x="15" y="25"/><circle class="cls-1" cx="47" cy="26" r="12"/><path class="cls-1" d="M43,28v2.063A1.937,1.937,0,0,0,44.937,32h4.125A1.937,1.937,0,0,0,51,30.063V27.938A1.937,1.937,0,0,0,49.062,26H44.937A1.937,1.937,0,0,1,43,24.063V21.938A1.937,1.937,0,0,1,44.937,20h4.125A1.937,1.937,0,0,1,51,21.938V24"/><line class="cls-1" x1="47" x2="47" y1="20" y2="17"/><line class="cls-1" x1="47" x2="47" y1="35" y2="32"/><polyline class="cls-1" points="20 13 16 17 20 21"/><path class="cls-1" d="M16,17H29a1.959,1.959,0,0,1,2,2v3"/><polyline class="cls-1" points="42 51 46 47 42 43"/><path class="cls-1" d="M46,47H33a1.959,1.959,0,0,1-2-2V42"/></g></svg>