<svg height="479pt" viewBox="0 -40 479.9833 479" width="479pt" xmlns="http://www.w3.org/2000/svg"><path d="m301.554688 206.773438c0 13.902343 7.417968 26.75 19.460937 33.703124 12.039063 6.953126 26.875 6.953126 38.917969.003907 16.355468 9.429687 37.117187 5.757812 49.25-8.707031 12.132812-14.464844 12.132812-35.550782 0-50.015626-12.132813-14.460937-32.894532-18.132812-49.25-8.707031-12.046875-6.941406-26.878906-6.929687-38.917969.023438-12.035156 6.953125-19.453125 19.796875-19.460937 33.699219zm-180.5625-50.03125c-31.679688-.042969-62.109376 12.386718-84.699219 34.597656l-.007813-.007813v-160.589843c0-16.707032 13.542969-30.25 30.25-30.25h383.199219c16.707031-.003907 30.25 13.542968 30.25 30.25v219.71875c.003906 16.710937-13.542969 30.257812-30.25 30.261718h-207.769531c.027344-.992187.039062-1.980468.039062-2.980468 0-66.832032-54.179687-121.007813-121.011718-121zm0 0" fill="#f8ec7d"/><path d="m359.933594 173.050781c12.042968 6.957031 19.460937 19.808594 19.460937 33.714844 0 13.910156-7.417969 26.757813-19.460937 33.714844-12.042969-6.957031-19.460938-19.804688-19.460938-33.714844 0-13.90625 7.417969-26.757813 19.460938-33.714844zm0 0" fill="#cc7350"/><path d="m359.933594 173.050781c16.359375-9.4375 37.132812-5.773437 49.273437 8.699219 12.140625 14.46875 12.140625 35.566406 0 50.035156s-32.914062 18.136719-49.273437 8.695313c12.042968-6.957031 19.460937-19.804688 19.460937-33.714844 0-13.90625-7.417969-26.757813-19.460937-33.714844zm0 0" fill="#e48e66"/><path d="m340.472656 167.851562c6.832032-.011718 13.546875 1.78125 19.460938 5.199219-12.042969 6.957031-19.460938 19.808594-19.460938 33.714844 0 13.910156 7.417969 26.757813 19.460938 33.714844-14.171875 8.183593-31.945313 6.625-44.480469-3.890625-12.535156-10.519532-17.152344-27.753906-11.554687-43.128906 5.597656-15.375 20.210937-25.609376 36.574218-25.609376zm0 0" fill="#e48e66"/><path d="m120.992188 156.742188c66.832031-.007813 121.011718 54.167968 121.011718 121 0 1-.011718 1.988281-.039062 2.980468-1.636719 66.417969-56.519532 119.09375-122.949219 118.003906-66.429687-1.089843-119.554687-55.539062-119.01171875-121.972656.54296875-66.4375 54.55078175-120.007812 120.98828175-120.011718zm0 0" fill="#6fe3ff"/><g fill="#e48e66"><path d="m235.851562 61.351562h-160.089843c-3.3125 0-6-2.6875-6-6s2.6875-6 6-6h160.089843c3.316407 0 6 2.6875 6 6s-2.683593 6-6 6zm0 0"/><path d="m274.933594 61.351562h-17.332032c-3.3125 0-6-2.6875-6-6s2.6875-6 6-6h17.332032c3.3125 0 6 2.6875 6 6s-2.6875 6-6 6zm0 0"/><path d="m83.242188 91.601562h-7.480469c-3.3125 0-6-2.6875-6-6s2.6875-6 6-6h7.480469c3.316406 0 6 2.6875 6 6s-2.683594 6-6 6zm0 0"/><path d="m205.601562 91.601562h-99.96875c-3.3125 0-6-2.6875-6-6s2.6875-6 6-6h99.96875c3.316407 0 6 2.6875 6 6s-2.683593 6-6 6zm0 0"/><path d="m274.933594 91.601562h-47.582032c-3.3125 0-6-2.6875-6-6s2.6875-6 6-6h47.582032c3.3125 0 6 2.6875 6 6s-2.6875 6-6 6zm0 0"/></g><path d="m170.992188 271.742188h-44v-44c0-3.3125-2.683594-6-6-6-3.3125 0-6 2.6875-6 6v44h-44c-3.3125 0-6 2.6875-6 6s2.6875 6 6 6h44v44c0 3.3125 2.6875 6 6 6 3.316406 0 6-2.6875 6-6v-44h44c3.316406 0 6-2.6875 6-6s-2.683594-6-6-6zm0 0" fill="#2561a1"/></svg>